<?xml version="1.0" encoding="utf-8"?>
<!-- Generator: Adobe Illustrator 24.0.0, SVG Export Plug-In . SVG Version: 6.00 Build 0)  -->
<svg version="1.1" id="Layer_1" xmlns="http://www.w3.org/2000/svg" xmlns:xlink="http://www.w3.org/1999/xlink" x="0px" y="0px"
	 viewBox="0 0 149.8 46.8" style="enable-background:new 0 0 149.8 46.8;" xml:space="preserve">
<style type="text/css">
	.st0{fill:#72A3F2;}
</style>
<title>Middel 2</title>
<path d="M25.1,34.4c0-1-0.2-2-0.7-2.9s-1.1-1.6-1.9-2.2c-0.9-0.7-1.9-1.2-2.9-1.6c-1.1-0.5-2.4-0.9-3.7-1.3
	c-1.8-0.5-3.6-1.2-5.3-1.9C9,23.8,7.4,22.8,6,21.7c-1.3-1.1-2.5-2.4-3.3-3.9c-0.9-1.6-1.3-3.4-1.3-5.2S1.8,9,2.6,7.3
	c0.8-1.5,2-2.9,3.4-3.9c1.5-1.1,3.2-2,5-2.5C12.9,0.3,14.9,0,16.8,0C18.9,0,21,0.3,23,1c1.8,0.6,3.5,1.6,5,2.8
	c1.4,1.2,2.6,2.7,3.4,4.4c0.8,1.8,1.3,3.7,1.3,5.7h-7.5c-0.1-1.1-0.3-2.1-0.7-3.1c-0.4-0.9-0.9-1.7-1.6-2.4s-1.6-1.2-2.5-1.6
	c-1.1-0.4-2.3-0.6-3.5-0.6c-1.1,0-2.1,0.1-3.1,0.4c-0.9,0.3-1.7,0.7-2.5,1.3c-0.7,0.5-1.2,1.2-1.6,2c-0.4,0.8-0.6,1.8-0.6,2.7
	c0,1,0.3,2,0.8,2.8c0.6,0.8,1.3,1.5,2.1,2c0.9,0.6,1.9,1.1,3,1.5s2.3,0.8,3.5,1.2c1.9,0.6,3.7,1.3,5.4,2.1c1.7,0.8,3.2,1.8,4.6,3
	c1.3,1.1,2.3,2.5,3.1,4c0.8,1.6,1.2,3.4,1.2,5.2c0,1.9-0.4,3.7-1.3,5.3c-0.8,1.6-2,2.9-3.4,4c-1.5,1.1-3.2,1.9-5,2.4
	c-1.9,0.5-3.9,0.8-5.9,0.8c-1.4,0-2.8-0.1-4.1-0.4c-1.4-0.3-2.7-0.7-4-1.2c-1.2-0.5-2.4-1.2-3.5-2s-2-1.7-2.8-2.8S1.4,38.2,0.9,37
	C0.2,35.4,0,33.9,0,32.5h7.5c0.1,1.2,0.4,2.5,0.9,3.6c0.5,1,1.2,1.9,2,2.5c0.9,0.7,1.9,1.2,2.9,1.5c1.2,0.4,2.4,0.5,3.7,0.5
	c1.1,0,2.1-0.1,3.2-0.4c0.9-0.2,1.8-0.6,2.6-1.2c0.7-0.5,1.3-1.2,1.7-2C24.9,36.2,25.1,35.3,25.1,34.4z"/>
<path d="M70.8,26.3c0,2.6-0.3,5.2-1,7.7c-0.6,2.3-1.7,4.6-3.1,6.5c-1.3,1.9-3.1,3.4-5.1,4.5c-2.2,1.2-4.7,1.7-7.2,1.7
	c-2.5,0.1-4.9-0.5-7.1-1.7c-2-1.1-3.7-2.7-5-4.5c-1.4-2-2.4-4.2-3-6.5c-0.7-2.5-1-5.1-1-7.7v-5.8c0-1.8,0.1-3.5,0.5-5.3
	c0.3-1.7,0.7-3.3,1.3-4.8s1.3-2.9,2.2-4.2c1.7-2.5,4.2-4.4,7.1-5.4C51,0.3,52.7,0,54.4,0c2.5-0.1,5,0.5,7.2,1.7
	c2,1.1,3.8,2.6,5.1,4.5c1.4,2,2.5,4.2,3.1,6.6c0.7,2.5,1,5.1,1,7.8V26.3z M63.2,20.4c0-1.7-0.2-3.4-0.5-5.1
	c-0.3-1.6-0.7-3.1-1.5-4.5c-0.6-1.3-1.6-2.4-2.7-3.2c-1.3-0.9-2.8-1.3-4.3-1.2c-1.5-0.1-3,0.4-4.2,1.2c-1.1,0.8-2,2-2.7,3.2
	c-0.7,1.4-1.1,3-1.4,4.5c-0.3,1.7-0.4,3.4-0.4,5.1v5.9c0,1.7,0.2,3.4,0.4,5.1c0.2,1.6,0.7,3.1,1.4,4.5c0.6,1.3,1.5,2.4,2.7,3.3
	c1.2,0.9,2.7,1.3,4.2,1.3c1.5,0.1,3-0.4,4.3-1.3c1.2-0.9,2.1-2,2.7-3.3c0.7-1.4,1.2-3,1.5-4.5c0.3-1.7,0.4-3.4,0.5-5.1V20.4z"/>
<path d="M86.5,40h21.7v6.1H79V0.6h7.5V40z"/>
<path d="M134.4,25.7h-18.7V40h21.9v6.1h-29.4V0.6h29.2v6.2h-21.7v12.9h18.7V25.7z"/>
<circle class="st0" cx="145.8" cy="42.1" r="4"/>
</svg>
